<?xml version="1.0" standalone="no"?>
<svg viewBox="0 0 200 200" xmlns="http://www.w3.org/2000/svg">
  <path fill="#49A6E9" d="M42.1,-74.1C54.3,-65.9,63.6,-54,68.3,-41.1C73.1,-28.1,73.2,-14,72.3,-0.5C71.4,13,69.5,26,62.7,35.5C56,44.9,44.4,50.8,33.1,57.3C21.8,63.7,10.9,70.7,-2.5,75.1C-15.9,79.4,-31.8,81.1,-42.2,74.1C-52.6,67.1,-57.4,51.5,-61,37.7C-64.6,24,-66.9,12,-65.8,0.6C-64.8,-10.8,-60.5,-21.6,-56.1,-34C-51.7,-46.4,-47.3,-60.4,-38,-70.2C-28.6,-80.1,-14.3,-85.7,0.3,-86.3C15,-86.9,30,-82.4,42.1,-74.1Z" transform="translate(100 100)" />
</svg>
